<mxfile host="app.diagrams.net" modified="2023-08-27T01:52:20.766Z" agent="Mozilla/5.0 (Macintosh; Intel Mac OS X 10_15_7) AppleWebKit/537.36 (KHTML, like Gecko) Chrome/116.0.0.0 Safari/537.36" etag="kZKo9-NdLmlc65RDnxeW" version="21.6.9" type="github">
  <diagram id="3228e29e-7158-1315-38df-8450db1d8a1d" name="Page-1">
    <mxGraphModel dx="735" dy="891" grid="0" gridSize="10" guides="1" tooltips="1" connect="1" arrows="1" fold="1" page="1" pageScale="1" pageWidth="600" pageHeight="300" background="#EFF1F3" math="0" shadow="0">
      <root>
        <mxCell id="0" />
        <mxCell id="1" parent="0" />
        <mxCell id="21531" value="&lt;font style=&quot;font-size: 21px;&quot;&gt;性能&lt;/font&gt;" style="ellipse;strokeColor=none;html=1;fontColor=#FFFFFF;fontSize=25;shadow=0;fillColor=#7EC4C3;opacity=70;" parent="1" vertex="1">
          <mxGeometry x="281" y="116" width="150" height="150" as="geometry" />
        </mxCell>
        <mxCell id="21532" value="&lt;font style=&quot;font-size: 21px;&quot;&gt;扩展性&lt;/font&gt;" style="ellipse;strokeColor=none;html=1;fontColor=#FFFFFF;fontSize=25;shadow=0;fillColor=#35699A;opacity=70;" parent="1" vertex="1">
          <mxGeometry x="169" y="116" width="150" height="150" as="geometry" />
        </mxCell>
        <mxCell id="21533" value="&lt;font style=&quot;font-size: 21px;&quot;&gt;可读性&lt;/font&gt;" style="ellipse;strokeColor=none;html=1;fontColor=#FFFFFF;fontSize=25;shadow=0;fillColor=#538AAF;opacity=70;" parent="1" vertex="1">
          <mxGeometry x="224" y="34" width="150" height="150" as="geometry" />
        </mxCell>
        <mxCell id="6f_SSbO-AHsCo6xBaQWa-21533" value="&lt;font style=&quot;font-size: 19px;&quot; color=&quot;#ffffff&quot;&gt;Json&lt;/font&gt;" style="text;html=1;strokeColor=none;fillColor=none;align=center;verticalAlign=middle;whiteSpace=wrap;rounded=0;" vertex="1" parent="1">
          <mxGeometry x="269" y="151" width="60" height="30" as="geometry" />
        </mxCell>
      </root>
    </mxGraphModel>
  </diagram>
</mxfile>
